<svg width="59" height="42" viewBox="0 0 59 42" fill="none" xmlns="http://www.w3.org/2000/svg">
<circle cx="29.2175" cy="12.7826" r="5.47826" fill="#3C77FF"/>
<path d="M52.8989 14.6087C49.8234 19.1739 42.7497 25.5652 37.2137 25.5652C37.2137 21.9131 34.4458 10.9565 39.9817 5.47826C45.5176 0.913044 55.3774 0 58.4348 0C57.5121 8.2174 54.7441 11.8696 52.8989 14.6087Z" fill="#3C77FF"/>
<path d="M5.53596 14.6087C8.61139 19.1739 15.6852 25.5652 21.2211 25.5652C21.2211 21.9131 23.9891 10.9565 18.4531 5.47826C12.9172 0.913044 3.05744 0 3.05176e-05 0C0.922686 8.2174 3.6907 11.8696 5.53596 14.6087Z" fill="#3C77FF"/>
<path d="M42 32.8696C39.4435 37.4348 37.7392 41.087 30.0696 42.0001C24.9566 42.0001 18.9913 40.1739 16.4348 32.8696C18.9913 30.1305 18.1392 31.0435 21.5479 27.3914C23.2522 33.7827 27.5053 34.6958 30.0696 34.6957C31.774 34.6957 35.1827 33.7827 36.887 27.3914C39.4435 30.1305 39.4435 30.1305 42 32.8696Z" fill="#3C77FF"/>
</svg>
